<svg width="144" height="21" viewBox="0 0 144 21" fill="none" xmlns="http://www.w3.org/2000/svg">
<path opacity="0.99" d="M100.885 15.0791C100.569 15.0791 100.296 14.9692 100.068 14.7495C99.8482 14.521 99.7383 14.2485 99.7383 13.9321C99.7383 13.6157 99.8482 13.3476 100.068 13.1279C100.296 12.9082 100.569 12.7983 100.885 12.7983C101.202 12.7983 101.47 12.9082 101.689 13.1279C101.918 13.3476 102.032 13.6157 102.032 13.9321C102.032 14.2485 101.918 14.521 101.689 14.7495C101.47 14.9692 101.202 15.0791 100.885 15.0791ZM107.801 15.1055C107.467 15.1055 107.159 15.0571 106.878 14.9604C106.597 14.855 106.368 14.7144 106.193 14.5386C105.779 14.1431 105.573 13.5806 105.573 12.8511V9.75288H104.4V8.2763H105.573V6.37785H107.3V8.2763H108.948V9.75288H107.3V12.5346C107.3 12.8774 107.375 13.1235 107.524 13.2729C107.647 13.4136 107.858 13.4839 108.157 13.4839C108.324 13.4839 108.46 13.4619 108.566 13.418C108.68 13.374 108.825 13.2993 109.001 13.1938V14.8813C108.623 15.0308 108.223 15.1055 107.801 15.1055ZM115.347 15.2109C114.679 15.2109 114.077 15.0571 113.541 14.7495C113.005 14.4419 112.583 14.02 112.275 13.4839C111.977 12.9389 111.827 12.3281 111.827 11.6513C111.827 11.0097 111.977 10.4165 112.275 9.87153C112.574 9.31782 112.987 8.87836 113.515 8.55316C114.042 8.22796 114.631 8.06536 115.281 8.06536C115.976 8.06536 116.573 8.21478 117.074 8.51361C117.575 8.81244 117.953 9.22114 118.208 9.7397C118.472 10.2583 118.604 10.8339 118.604 11.4668C118.604 11.6689 118.59 11.8623 118.564 12.0468H113.515C113.603 12.583 113.813 12.9917 114.147 13.2729C114.49 13.5454 114.899 13.6816 115.374 13.6816C115.769 13.6816 116.107 13.5981 116.389 13.4311C116.679 13.2554 116.907 13.0224 117.074 12.7324L118.472 13.418C117.786 14.6133 116.745 15.2109 115.347 15.2109ZM116.942 10.8208C116.925 10.6098 116.846 10.4033 116.705 10.2011C116.573 9.99019 116.384 9.8188 116.138 9.68696C115.901 9.54633 115.62 9.47602 115.294 9.47602C114.881 9.47602 114.525 9.59907 114.227 9.84517C113.937 10.0825 113.726 10.4077 113.594 10.8208H116.942ZM124.599 15.2109C123.782 15.2109 123.119 15.0439 122.609 14.71C122.108 14.376 121.756 13.9409 121.554 13.4048L123.097 12.7324C123.237 13.0488 123.435 13.2905 123.69 13.4575C123.953 13.6157 124.257 13.6948 124.599 13.6948C124.916 13.6948 125.18 13.6465 125.391 13.5498C125.601 13.4443 125.707 13.2773 125.707 13.0488C125.707 12.8291 125.61 12.6665 125.417 12.561C125.224 12.4468 124.933 12.3457 124.547 12.2578L123.756 12.0864C123.211 11.9546 122.758 11.7173 122.398 11.3745C122.037 11.0229 121.857 10.5878 121.857 10.0693C121.857 9.68257 121.972 9.33539 122.2 9.02777C122.437 8.72015 122.754 8.48285 123.149 8.31585C123.554 8.14886 123.997 8.06536 124.481 8.06536C125.87 8.06536 126.797 8.55316 127.263 9.52876L125.786 10.1748C125.522 9.70014 125.1 9.46284 124.52 9.46284C124.222 9.46284 123.984 9.51997 123.808 9.63423C123.633 9.7397 123.545 9.87593 123.545 10.0429C123.545 10.3593 123.844 10.5966 124.441 10.7548L125.43 10.9921C126.098 11.1591 126.599 11.414 126.933 11.7568C127.276 12.0996 127.447 12.5215 127.447 13.0224C127.447 13.4531 127.32 13.8354 127.065 14.1694C126.819 14.4946 126.476 14.7495 126.037 14.9341C125.606 15.1187 125.127 15.2109 124.599 15.2109ZM133.604 15.1055C133.27 15.1055 132.962 15.0571 132.681 14.9604C132.4 14.855 132.171 14.7144 131.996 14.5386C131.582 14.1431 131.376 13.5806 131.376 12.8511V9.75288H130.203V8.2763H131.376V6.37785H133.103V8.2763H134.751V9.75288H133.103V12.5346C133.103 12.8774 133.178 13.1235 133.327 13.2729C133.45 13.4136 133.661 13.4839 133.96 13.4839C134.127 13.4839 134.263 13.4619 134.369 13.418C134.483 13.374 134.628 13.2993 134.804 13.1938V14.8813C134.426 15.0308 134.026 15.1055 133.604 15.1055Z" fill="#E3E3E3"/>
<path opacity="0.99" d="M0.88322 3.88727H3.15436V14.0443L2.92566 16H0.88322V3.88727ZM8.55619 11.647V11.8126C8.55619 12.4487 8.48785 13.0323 8.35116 13.5633C8.21973 14.0942 8.01469 14.5543 7.73606 14.9433C7.45742 15.3271 7.11044 15.6267 6.69512 15.8423C6.28505 16.0526 5.80139 16.1577 5.24412 16.1577C4.72365 16.1577 4.27152 16.0526 3.88774 15.8423C3.50922 15.632 3.19116 15.335 2.93355 14.9512C2.67595 14.5674 2.46828 14.1179 2.31057 13.6027C2.15285 13.0875 2.03456 12.525 1.9557 11.9151V11.5524C2.03456 10.9425 2.15285 10.38 2.31057 9.86478C2.46828 9.34957 2.67595 8.90007 2.93355 8.51629C3.19116 8.13251 3.50922 7.83548 3.88774 7.62519C4.26627 7.4149 4.71313 7.30975 5.22834 7.30975C5.79087 7.30975 6.2798 7.41752 6.69512 7.63307C7.1157 7.84336 7.46268 8.14303 7.73606 8.53206C8.01469 8.91584 8.21973 9.37322 8.35116 9.90421C8.48785 10.4299 8.55619 11.0109 8.55619 11.647ZM6.28505 11.8126V11.647C6.28505 11.3 6.25877 10.9741 6.20619 10.6691C6.15888 10.359 6.07476 10.0882 5.95385 9.85689C5.83293 9.62032 5.66733 9.43368 5.45704 9.29699C5.252 9.16031 4.98651 9.09196 4.66056 9.09196C4.35038 9.09196 4.08752 9.14453 3.87197 9.24968C3.65642 9.35482 3.47768 9.50203 3.33573 9.69129C3.19904 9.88055 3.09653 10.1066 3.02818 10.3695C2.95984 10.6271 2.91778 10.911 2.90201 11.2212V12.2542C2.91778 12.6695 2.98612 13.0375 3.10704 13.3582C3.23321 13.6737 3.42248 13.9234 3.67482 14.1074C3.93243 14.2861 4.26627 14.3755 4.67633 14.3755C4.99703 14.3755 5.26252 14.3124 5.47281 14.1862C5.6831 14.0601 5.84607 13.8813 5.96173 13.65C6.08265 13.4187 6.16677 13.1479 6.21408 12.8378C6.2614 12.5223 6.28505 12.1806 6.28505 11.8126ZM13.0464 9.32854V16H10.7753V7.46747H12.9124L13.0464 9.32854ZM15.6172 7.41227L15.5778 9.5178C15.4674 9.50203 15.3333 9.48888 15.1756 9.47837C15.0231 9.4626 14.8838 9.45471 14.7577 9.45471C14.437 9.45471 14.1583 9.49677 13.9217 9.58089C13.6904 9.65975 13.4959 9.77803 13.3382 9.93575C13.1857 10.0935 13.0701 10.2854 12.9912 10.5114C12.9176 10.7375 12.8756 10.9951 12.865 11.2842L12.4077 11.1423C12.4077 10.5903 12.4629 10.083 12.5733 9.62032C12.6837 9.15242 12.844 8.74498 13.0543 8.398C13.2698 8.05102 13.5327 7.7829 13.8429 7.59364C14.1531 7.40438 14.5079 7.30975 14.9075 7.30975C15.0337 7.30975 15.1625 7.32026 15.2939 7.34129C15.4253 7.35707 15.5331 7.38072 15.6172 7.41227ZM21.8344 14.0758V10.2748C21.8344 10.0015 21.7898 9.76752 21.7004 9.573C21.611 9.37322 21.4717 9.21814 21.2824 9.10773C21.0984 8.99733 20.8592 8.94213 20.5648 8.94213C20.3125 8.94213 20.0943 8.98682 19.9103 9.07619C19.7263 9.16031 19.5843 9.28385 19.4845 9.44683C19.3846 9.60454 19.3346 9.79118 19.3346 10.0067H17.0635C17.0635 9.64397 17.1476 9.29962 17.3158 8.97367C17.4841 8.64772 17.7285 8.3612 18.0492 8.11411C18.3699 7.86176 18.7511 7.66462 19.1927 7.52267C19.6395 7.38072 20.139 7.30975 20.691 7.30975C21.3534 7.30975 21.9422 7.42015 22.4574 7.64096C22.9726 7.86176 23.3775 8.19297 23.6719 8.63458C23.9715 9.07619 24.1214 9.6282 24.1214 10.2906V13.9418C24.1214 14.4097 24.1503 14.7935 24.2081 15.0931C24.2659 15.3875 24.35 15.6451 24.4605 15.8659V16H22.1657C22.0553 15.7687 21.9711 15.4795 21.9133 15.1326C21.8607 14.7803 21.8344 14.4281 21.8344 14.0758ZM22.1341 10.8032L22.1499 12.0886H20.8803C20.5806 12.0886 20.3204 12.1228 20.0996 12.1911C19.8787 12.2595 19.6974 12.3567 19.5554 12.4829C19.4135 12.6038 19.3083 12.7458 19.24 12.9087C19.1769 13.0717 19.1454 13.2505 19.1454 13.445C19.1454 13.6395 19.19 13.8156 19.2794 13.9733C19.3688 14.1258 19.4976 14.2467 19.6658 14.3361C19.8341 14.4202 20.0312 14.4623 20.2573 14.4623C20.599 14.4623 20.896 14.3939 21.1484 14.2572C21.4007 14.1205 21.5952 13.9523 21.7319 13.7525C21.8739 13.5527 21.9475 13.3635 21.9527 13.1847L22.5521 14.1468C22.4679 14.3624 22.3523 14.5858 22.2051 14.8171C22.0631 15.0484 21.8818 15.2666 21.661 15.4716C21.4402 15.6714 21.1747 15.837 20.8645 15.9685C20.5543 16.0946 20.1863 16.1577 19.7605 16.1577C19.219 16.1577 18.7274 16.0499 18.2858 15.8344C17.8494 15.6136 17.5025 15.3113 17.2449 14.9275C16.9925 14.5385 16.8663 14.0969 16.8663 13.6027C16.8663 13.1558 16.9505 12.7589 17.1187 12.4119C17.2869 12.0649 17.534 11.7732 17.86 11.5366C18.1912 11.2948 18.6039 11.1134 19.098 10.9925C19.5922 10.8663 20.1653 10.8032 20.8172 10.8032H22.1341ZM28.9034 9.28911V16H26.6322V7.46747H28.7614L28.9034 9.28911ZM28.5722 11.4341H27.9571C27.9571 10.8032 28.0385 10.2354 28.2015 9.73072C28.3645 9.22076 28.5932 8.78704 28.8876 8.42955C29.182 8.0668 29.5316 7.79079 29.9364 7.60153C30.3465 7.40701 30.8039 7.30975 31.3086 7.30975C31.7081 7.30975 32.0735 7.36758 32.4047 7.48324C32.7359 7.5989 33.0198 7.7829 33.2564 8.03525C33.4982 8.2876 33.6822 8.62144 33.8084 9.03676C33.9398 9.45208 34.0055 9.95941 34.0055 10.5587V16H31.7186V10.5509C31.7186 10.1723 31.6661 9.87792 31.5609 9.66763C31.4558 9.45734 31.3007 9.31014 31.0956 9.22602C30.8959 9.13665 30.6488 9.09196 30.3544 9.09196C30.0494 9.09196 29.784 9.15242 29.5579 9.27334C29.3371 9.39425 29.1531 9.56249 29.0059 9.77803C28.8639 9.98832 28.7562 10.2354 28.6826 10.5193C28.609 10.8032 28.5722 11.1081 28.5722 11.4341ZM41.9419 7.46747H44.0001V15.7161C44.0001 16.4942 43.8266 17.154 43.4796 17.6955C43.1379 18.2422 42.6595 18.6549 42.0444 18.9336C41.4293 19.2174 40.7143 19.3594 39.8994 19.3594C39.542 19.3594 39.1634 19.3121 38.7639 19.2174C38.3696 19.1228 37.9911 18.9756 37.6283 18.7758C37.2708 18.5761 36.9712 18.3237 36.7293 18.0188L37.7308 16.6782C37.9937 16.9831 38.2986 17.2197 38.6456 17.3879C38.9926 17.5614 39.3763 17.6482 39.7969 17.6482C40.207 17.6482 40.554 17.5719 40.8379 17.4195C41.1218 17.2723 41.3399 17.0541 41.4924 16.7649C41.6449 16.481 41.7211 16.1367 41.7211 15.7319V9.43894L41.9419 7.46747ZM36.201 11.8363V11.6706C36.201 11.0187 36.2798 10.4273 36.4375 9.89632C36.6005 9.36008 36.8292 8.90007 37.1236 8.51629C37.4233 8.13251 37.786 7.83548 38.2119 7.62519C38.6377 7.4149 39.1187 7.30975 39.655 7.30975C40.2228 7.30975 40.6985 7.4149 41.0823 7.62519C41.4661 7.83548 41.7815 8.13514 42.0286 8.52418C42.2757 8.90796 42.4676 9.36271 42.6043 9.88844C42.7463 10.4089 42.8567 10.9793 42.9355 11.5997V11.9624C42.8567 12.5565 42.7384 13.1085 42.5806 13.6185C42.4229 14.1284 42.2153 14.5753 41.9577 14.9591C41.7001 15.3376 41.3794 15.632 40.9956 15.8423C40.6171 16.0526 40.1649 16.1577 39.6392 16.1577C39.1135 16.1577 38.6377 16.0499 38.2119 15.8344C37.7913 15.6188 37.4312 15.3166 37.1315 14.9275C36.8318 14.5385 36.6005 14.0811 36.4375 13.5554C36.2798 13.0296 36.201 12.4566 36.201 11.8363ZM38.4721 11.6706V11.8363C38.4721 12.1885 38.5063 12.5171 38.5746 12.822C38.643 13.1269 38.7481 13.3977 38.8901 13.6342C39.0373 13.8656 39.2186 14.0469 39.4342 14.1784C39.655 14.3045 39.9152 14.3676 40.2149 14.3676C40.6302 14.3676 40.9693 14.2809 41.2322 14.1074C41.495 13.9286 41.6922 13.6842 41.8236 13.374C41.955 13.0638 42.0313 12.7063 42.0523 12.3015V11.2685C42.0418 10.9373 41.9971 10.6402 41.9182 10.3774C41.8394 10.1092 41.729 9.88055 41.587 9.69129C41.4451 9.50203 41.2611 9.35482 41.035 9.24968C40.809 9.14453 40.5408 9.09196 40.2307 9.09196C39.931 9.09196 39.6708 9.16031 39.45 9.29699C39.2344 9.42843 39.053 9.6098 38.9058 9.84112C38.7639 10.0724 38.6561 10.3458 38.5825 10.6613C38.5089 10.9714 38.4721 11.3079 38.4721 11.6706ZM48.9714 7.46747V16H46.6923V7.46747H48.9714ZM46.5504 5.24365C46.5504 4.91244 46.6661 4.63906 46.8974 4.42351C47.1287 4.20797 47.4389 4.10019 47.8279 4.10019C48.2117 4.10019 48.5192 4.20797 48.7506 4.42351C48.9871 4.63906 49.1054 4.91244 49.1054 5.24365C49.1054 5.57485 48.9871 5.84823 48.7506 6.06378C48.5192 6.27933 48.2117 6.3871 47.8279 6.3871C47.4389 6.3871 47.1287 6.27933 46.8974 6.06378C46.6661 5.84823 46.5504 5.57485 46.5504 5.24365ZM53.8795 9.28911V16H51.6084V7.46747H53.7376L53.8795 9.28911ZM53.5483 11.4341H52.9332C52.9332 10.8032 53.0147 10.2354 53.1777 9.73072C53.3407 9.22076 53.5694 8.78704 53.8638 8.42955C54.1582 8.0668 54.5078 7.79079 54.9126 7.60153C55.3227 7.40701 55.78 7.30975 56.2847 7.30975C56.6843 7.30975 57.0497 7.36758 57.3809 7.48324C57.7121 7.5989 57.996 7.7829 58.2326 8.03525C58.4744 8.2876 58.6584 8.62144 58.7846 9.03676C58.916 9.45208 58.9817 9.95941 58.9817 10.5587V16H56.6948V10.5509C56.6948 10.1723 56.6422 9.87792 56.5371 9.66763C56.4319 9.45734 56.2769 9.31014 56.0718 9.22602C55.872 9.13665 55.625 9.09196 55.3306 9.09196C55.0256 9.09196 54.7601 9.15242 54.5341 9.27334C54.3133 9.39425 54.1293 9.56249 53.9821 9.77803C53.8401 9.98832 53.7323 10.2354 53.6587 10.5193C53.5851 10.8032 53.5483 11.1081 53.5483 11.4341ZM66.9181 7.46747H68.9763V15.7161C68.9763 16.4942 68.8028 17.154 68.4558 17.6955C68.1141 18.2422 67.6357 18.6549 67.0206 18.9336C66.4055 19.2174 65.6905 19.3594 64.8756 19.3594C64.5181 19.3594 64.1396 19.3121 63.7401 19.2174C63.3458 19.1228 62.9672 18.9756 62.6045 18.7758C62.247 18.5761 61.9473 18.3237 61.7055 18.0188L62.707 16.6782C62.9699 16.9831 63.2748 17.2197 63.6218 17.3879C63.9688 17.5614 64.3525 17.6482 64.7731 17.6482C65.1832 17.6482 65.5302 17.5719 65.8141 17.4195C66.0979 17.2723 66.3161 17.0541 66.4686 16.7649C66.621 16.481 66.6973 16.1367 66.6973 15.7319V9.43894L66.9181 7.46747ZM61.1771 11.8363V11.6706C61.1771 11.0187 61.256 10.4273 61.4137 9.89632C61.5767 9.36008 61.8054 8.90007 62.0998 8.51629C62.3995 8.13251 62.7622 7.83548 63.1881 7.62519C63.6139 7.4149 64.0949 7.30975 64.6312 7.30975C65.199 7.30975 65.6747 7.4149 66.0585 7.62519C66.4423 7.83548 66.7577 8.13514 67.0048 8.52418C67.2519 8.90796 67.4438 9.36271 67.5805 9.88844C67.7224 10.4089 67.8328 10.9793 67.9117 11.5997V11.9624C67.8328 12.5565 67.7146 13.1085 67.5568 13.6185C67.3991 14.1284 67.1915 14.5753 66.9338 14.9591C66.6762 15.3376 66.3555 15.632 65.9718 15.8423C65.5932 16.0526 65.1411 16.1577 64.6154 16.1577C64.0897 16.1577 63.6139 16.0499 63.1881 15.8344C62.7675 15.6188 62.4073 15.3166 62.1077 14.9275C61.808 14.5385 61.5767 14.0811 61.4137 13.5554C61.256 13.0296 61.1771 12.4566 61.1771 11.8363ZM63.4483 11.6706V11.8363C63.4483 12.1885 63.4825 12.5171 63.5508 12.822C63.6191 13.1269 63.7243 13.3977 63.8662 13.6342C64.0134 13.8656 64.1948 14.0469 64.4104 14.1784C64.6312 14.3045 64.8914 14.3676 65.1911 14.3676C65.6064 14.3676 65.9455 14.2809 66.2083 14.1074C66.4712 13.9286 66.6684 13.6842 66.7998 13.374C66.9312 13.0638 67.0074 12.7063 67.0285 12.3015V11.2685C67.018 10.9373 66.9733 10.6402 66.8944 10.3774C66.8156 10.1092 66.7052 9.88055 66.5632 9.69129C66.4213 9.50203 66.2373 9.35482 66.0112 9.24968C65.7851 9.14453 65.517 9.09196 65.2068 9.09196C64.9072 9.09196 64.6469 9.16031 64.4261 9.29699C64.2106 9.42843 64.0292 9.6098 63.882 9.84112C63.7401 10.0724 63.6323 10.3458 63.5587 10.6613C63.4851 10.9714 63.4483 11.3079 63.4483 11.6706Z" fill="#E3E3E3"/>
<rect x="89.689" y="5.15295" width="11.509" height="1.77061" rx="0.885306" transform="rotate(105 89.689 5.15295)" fill="#7206A9"/>
</svg>
